<svg id="Layer_1" data-name="Layer 1" xmlns="http://www.w3.org/2000/svg" width="30mm" height="25mm" viewBox="0 0 85.04 70.87">
  <defs>
    <style>
      .cls-1 {
        fill: #1d1d1b;
      }

      .cls-2, .cls-3 {
        fill: none;
        stroke: #1d1d1b;
        stroke-miterlimit: 10;
      }

      .cls-2 {
        stroke-width: 2.31px;
      }

      .cls-3 {
        stroke-width: 2.89px;
      }
    </style>
  </defs>
  <g>
    <path class="cls-1" d="M33.18,28.69v3.06H22.31V38h7.36v3.05H22.31v9.31h-3V28.69Z"/>
    <path class="cls-1" d="M42.69,28.69a7.06,7.06,0,0,1,5,1.7,5.88,5.88,0,0,1,1.87,4.55,5.86,5.86,0,0,1-1.87,4.54,7,7,0,0,1-5,1.7h-4v9.19H35.58V28.69Zm0,9.44a4.65,4.65,0,0,0,2.52-.6,2.84,2.84,0,0,0,1.25-2.59,2.82,2.82,0,0,0-1.25-2.59,4.65,4.65,0,0,0-2.52-.6h-4v6.38Z"/>
    <path class="cls-1" d="M61,47.32a5.32,5.32,0,0,0,5.35-3.55l2.82,1.14A8.56,8.56,0,0,1,66,49a8.74,8.74,0,0,1-5,1.42,8.2,8.2,0,0,1-6.64-2.91,11.89,11.89,0,0,1-2.46-7.93,11.91,11.91,0,0,1,2.46-7.93A8.2,8.2,0,0,1,61,28.69a8.86,8.86,0,0,1,5,1.39,8.51,8.51,0,0,1,3.17,4l-2.82,1.15a5.82,5.82,0,0,0-9.78-1.47A9.13,9.13,0,0,0,55,39.53a9.2,9.2,0,0,0,1.58,5.76A5.33,5.33,0,0,0,61,47.32Z"/>
  </g>
  <g>
    <path class="cls-2" d="M55.09,20.24H30.72l4-8.48a2.89,2.89,0,0,1,2.58-1.7h11a2.87,2.87,0,0,1,2.55,1.65Z"/>
    <rect class="cls-2" x="58.43" y="16.15" width="11.28" height="5.23" rx="2.61"/>
    <rect class="cls-3" x="14.52" y="21.09" width="57.8" height="37.86" rx="2.88"/>
  </g>
</svg>
